<?xml version="1.0" encoding="utf-8"?>
<!-- Generator: Adobe Illustrator 23.0.1, SVG Export Plug-In . SVG Version: 6.00 Build 0)  -->
<svg version="1.1" id="Layer_1" xmlns="http://www.w3.org/2000/svg" xmlns:xlink="http://www.w3.org/1999/xlink" x="0px" y="0px"
	 viewBox="0 0 800 450" style="enable-background:new 0 0 800 450;" xml:space="preserve">
<g>
	<g style="opacity:0.56;">
		<path style="fill-rule:evenodd;clip-rule:evenodd;fill:#FFFFFF;" d="M4,0h792c2.2,0,4,1.8,4,4v442c0,2.2-1.8,4-4,4H4
			c-2.2,0-4-1.8-4-4V4C0,1.8,1.8,0,4,0z"/>
	</g>
	<path style="opacity:0.56;fill-rule:evenodd;clip-rule:evenodd;fill:#FFFFFF;enable-background:new    ;" d="M4,0h792
		c2.2,0,4,1.8,4,4v442c0,2.2-1.8,4-4,4H4c-2.2,0-4-1.8-4-4V4C0,1.8,1.8,0,4,0z"/>
	
		<linearGradient id="SVGID_1_" gradientUnits="userSpaceOnUse" x1="1117.4164" y1="318.5" x2="1116.4164" y2="318.5" gradientTransform="matrix(706 0 0 -2 -788143 1071)">
		<stop  offset="0" style="stop-color:#F6F8FA;stop-opacity:0"/>
		<stop  offset="0.5004" style="stop-color:#E3E7EB"/>
		<stop  offset="1" style="stop-color:#F6F8FA;stop-opacity:0"/>
	</linearGradient>
	<path style="fill-rule:evenodd;clip-rule:evenodd;fill:url(#SVGID_1_);" d="M47,433h706v2H47V433z"/>
	<g transform="translate(0 12)">
		<circle style="fill-rule:evenodd;clip-rule:evenodd;fill:#FF6D8B;" cx="36" cy="4" r="4"/>
		<circle style="fill-rule:evenodd;clip-rule:evenodd;fill:#FFCB4F;" cx="52" cy="4" r="4"/>
		<circle style="fill-rule:evenodd;clip-rule:evenodd;fill:#7CE8DD;" cx="68" cy="4" r="4"/>
		<path style="fill:none;" d="M0,20h800v2H0V20z"/>
		<path style="fill-rule:evenodd;clip-rule:evenodd;fill:#E3E7EB;" d="M742,2h24v4h-24V2z"/>
	</g>
	<g>
		<path style="fill-rule:evenodd;clip-rule:evenodd;fill:#F6F8FA;" d="M49,59.8h702v44.4H49V59.8z"/>
	</g>
	<g style="opacity:0.45;">
		<path style="fill:#4D4D4D;" d="M738.7,91.6l-4.7-5.4c1.3-1.7,2.1-3.6,2.2-5.8c0.1-1.4-0.1-2.8-0.6-4.1c-0.5-1.3-1.1-2.5-2-3.5
			s-1.9-1.8-3.2-2.4c-1.2-0.6-2.6-1-4-1.1s-2.8,0.1-4.1,0.6s-2.5,1.1-3.5,2s-1.8,1.9-2.4,3.2c-0.6,1.2-1,2.6-1.1,4s0.1,2.8,0.6,4.1
			c0.5,1.3,1.1,2.5,2,3.5s1.9,1.8,3.2,2.4c1.2,0.6,2.6,1,4,1.1c2.2,0.1,4.2-0.3,6-1.4l4.7,5.4c0.3,0.4,0.8,0.6,1.3,0.6
			s1-0.1,1.4-0.5c0.4-0.3,0.6-0.8,0.6-1.3C739.2,92.4,739.1,92,738.7,91.6 M730.2,84.7c-1.4,1.2-3,1.8-4.8,1.6
			c-1.8-0.1-3.3-0.9-4.5-2.2c-1.2-1.4-1.8-3-1.6-4.8c0.1-1.8,0.9-3.3,2.2-4.5c1.4-1.2,3-1.8,4.8-1.6c1.8,0.1,3.3,0.9,4.5,2.2
			c1.2,1.4,1.8,3,1.6,4.8C732.3,82,731.6,83.5,730.2,84.7"/>
	</g>
	<g>
		<rect x="50.5" y="119.9" style="fill-rule:evenodd;clip-rule:evenodd;fill:#F6F8FA;" width="700.5" height="244.1"/>
	</g>
	<text transform="matrix(1 0 0 1 415.4583 238.043)" style="enable-background:new    ;"><tspan x="0" y="0" style="fill:#8A8B8D; font-family:'Avenir-Heavy'; font-size:18px;">Churn dashboard Q4FY18</tspan><tspan x="0" y="43.2" style="fill:#8A8B8D; font-family:'Avenir-Heavy'; font-size:18px;">Rate is 3.4% MoM</tspan></text>
	<polygon style="fill:#E8762C;" points="84.9,146.6 82.2,146.6 82.2,143.7 81.2,143.7 81.2,146.6 78.5,146.6 78.5,147.7 81.2,147.7 
		81.2,150.6 82.2,150.6 82.2,147.7 84.9,147.7 	"/>
	<polygon style="fill:#C62036;" points="79.5,151.4 77.2,151.4 77.2,148.8 76.2,148.8 76.2,151.4 73.9,151.4 73.9,152.1 76.2,152.1 
		76.2,154.7 77.2,154.7 77.2,152.1 79.5,152.1 	"/>
	<polygon style="fill:#5A869A;" points="89.5,142.1 87.1,142.1 87.1,139.5 86.2,139.5 86.2,142.1 83.9,142.1 83.9,142.9 86.2,142.9 
		86.2,145.5 87.1,145.5 87.1,142.9 89.5,142.9 	"/>
	<polygon style="fill:#5C6691;" points="83.7,154.2 82.1,154.2 82.1,152.4 81.3,152.4 81.3,154.2 79.7,154.2 79.7,154.9 81.3,154.9 
		81.3,156.7 82.1,156.7 82.1,154.9 83.7,154.9 	"/>
	<polygon style="fill:#EB9028;" points="79.5,142.1 77.1,142.1 77.1,139.5 76.3,139.5 76.3,142.1 73.9,142.1 73.9,142.9 76.3,142.9 
		76.3,145.5 77.1,145.5 77.1,142.9 79.5,142.9 	"/>
	<polygon style="fill:#5C6691;" points="91.4,146.8 89.7,146.8 89.7,145 89,145 89,146.8 87.4,146.8 87.4,147.5 89,147.5 89,149.3 
		89.7,149.3 89.7,147.5 91.4,147.5 	"/>
	<polygon style="fill-rule:evenodd;clip-rule:evenodd;fill:#1E457E;" points="89.5,151.4 87.1,151.4 87.1,148.8 86.2,148.8 
		86.2,151.4 83.9,151.4 83.9,152.1 86.2,152.1 86.2,154.7 87.1,154.7 87.1,152.1 89.5,152.1 	"/>
	<polygon style="fill:#7098A4;" points="81.4,137.7 81.4,139.4 79.8,139.4 79.8,140 81.4,140 81.4,141.7 82,141.7 82,140 83.6,140 
		83.6,139.4 82,139.4 82,137.7 	"/>
	<polygon style="fill:#7098A4;" points="75.8,146.9 74.2,146.9 74.2,145.1 73.6,145.1 73.6,146.9 72,146.9 72,147.4 73.6,147.4 
		73.6,149.2 74.2,149.2 74.2,147.4 75.8,147.4 	"/>
	<g>
		<path style="fill-rule:evenodd;clip-rule:evenodd;fill:#5A869A;" d="M100.1,157c0.2,0.1,0.4,0.2,0.6,0.2c0.5,0,0.7-0.2,0.7-0.5
			c0-0.2-0.1-0.4-0.2-0.5c-0.1-0.1-0.3-0.1-0.5-0.2c-0.2-0.1-0.2-0.1-0.2-0.2c0-0.1,0.1-0.1,0.3-0.1c0.2,0,0.4,0.1,0.6,0.2v-0.4
			c-0.2-0.1-0.4-0.1-0.6-0.1c-0.4,0-0.7,0.2-0.7,0.5c0,0.3,0.2,0.5,0.7,0.6c0.2,0.1,0.2,0.1,0.2,0.2c0,0.1-0.1,0.2-0.3,0.2
			c-0.2,0-0.4-0.1-0.6-0.2V157z"/>
		<path style="fill-rule:evenodd;clip-rule:evenodd;fill:#5A869A;" d="M109,156.3c0,0.3,0.1,0.5,0.3,0.7c0.2,0.2,0.4,0.3,0.7,0.3
			c0.3,0,0.5-0.1,0.7-0.3c0.2-0.2,0.3-0.4,0.3-0.7c0-0.3-0.1-0.5-0.3-0.7c-0.2-0.2-0.4-0.3-0.7-0.3c-0.3,0-0.5,0.1-0.7,0.3
			C109.1,155.8,109,156,109,156.3 M109.5,156.3c0-0.3,0.2-0.6,0.5-0.6c0.3,0,0.5,0.2,0.5,0.6c0,0.3-0.2,0.6-0.5,0.6
			C109.7,156.8,109.5,156.6,109.5,156.3"/>
		<polygon style="fill-rule:evenodd;clip-rule:evenodd;fill:#5A869A;" points="119.1,157.2 119.6,157.2 119.6,156.4 120.3,156.4 
			120.3,156.1 119.6,156.1 119.6,155.7 120.3,155.7 120.3,155.3 119.1,155.3 		"/>
		<polygon style="fill-rule:evenodd;clip-rule:evenodd;fill:#5A869A;" points="128.9,157.2 129.3,157.2 129.3,155.7 129.9,155.7 
			129.9,155.3 128.2,155.3 128.2,155.7 128.9,155.7 		"/>
		<polygon style="fill-rule:evenodd;clip-rule:evenodd;fill:#5A869A;" points="138.1,157.2 138.2,157.2 138.7,156.1 139.1,157.2 
			139.3,157.2 140,155.3 139.5,155.3 139.2,156.3 138.8,155.3 138.5,155.3 138.1,156.3 137.8,155.3 137.3,155.3 		"/>
		<path style="fill-rule:evenodd;clip-rule:evenodd;fill:#5A869A;" d="M146.9,157.2h0.5l0.1-0.4h0.8l0.1,0.4h0.5l-0.7-1.8h-0.5
			L146.9,157.2z M147.7,156.5l0.3-0.7l0.3,0.7H147.7z"/>
		<path style="fill-rule:evenodd;clip-rule:evenodd;fill:#5A869A;" d="M156.4,157.2h0.5v-0.7c0,0,0,0,0.1,0c0.2,0,0.3,0.1,0.3,0.2
			l0.2,0.5h0.5l-0.3-0.6c-0.1-0.1-0.1-0.2-0.2-0.2c0.2-0.1,0.3-0.2,0.3-0.4c0-0.4-0.2-0.5-0.7-0.5h-0.7V157.2z M157,156.1h-0.2v-0.4
			h0.2c0.2,0,0.3,0.1,0.3,0.2C157.3,156,157.2,156.1,157,156.1"/>
		<polygon style="fill-rule:evenodd;clip-rule:evenodd;fill:#5A869A;" points="165.5,157.2 166.8,157.2 166.8,156.8 166,156.8 
			166,156.4 166.7,156.4 166.7,156.1 166,156.1 166,155.7 166.8,155.7 166.8,155.3 165.5,155.3 		"/>
		<path style="fill-rule:evenodd;clip-rule:evenodd;fill:#1E457E;" d="M123.5,145.7c0.6-0.2,1.2-0.3,1.5-0.3c1.8,0,3,1.3,3,3.2
			c0,2-1.3,3.2-3.5,3.2c-0.8,0-1.5-0.1-2.3-0.4l0-9h1.3V145.7z M124.6,150.6c1.2,0,2-0.7,2-2c0-1.3-0.7-2-1.8-2
			c-0.5,0-1,0.2-1.3,0.3v3.4C123.9,150.5,124.3,150.6,124.6,150.6"/>
		<rect x="133.6" y="141.1" style="fill-rule:evenodd;clip-rule:evenodd;fill:#1E457E;" width="1.3" height="11.8"/>
		<path style="fill-rule:evenodd;clip-rule:evenodd;fill:#1E457E;" d="M142.2,147.9h3c0-0.8-0.5-1.2-1.2-1.3
			C143.2,146.5,142.5,147,142.2,147.9 M143.7,151.8c-2-0.2-3-1.6-3-3.3c0.1-1.8,1.2-3.1,3.1-3.1c1.9,0,3,1.4,2.9,3.5h-4.6
			c0.1,1.1,0.8,1.7,1.7,1.8c0.8,0.1,1.9-0.1,2.5-0.5v1.3C145.5,151.8,144.7,151.9,143.7,151.8"/>
		<path style="fill-rule:evenodd;clip-rule:evenodd;fill:#1E457E;" d="M166.3,150.8c0.8,0,1.4-0.4,1.4-1.4v-3.9h1.3v4.1
			c0,1.4-1.1,2.2-2.7,2.2c-1.7,0-2.7-0.8-2.7-2.2v-4.1h1.3v3.9C164.9,150.4,165.5,150.8,166.3,150.8"/>
		<path style="fill-rule:evenodd;clip-rule:evenodd;fill:#1E457E;" d="M113.3,151.8c-2.2,0-3.5-1.2-3.5-3.2c0-2,1.2-3.2,3-3.2
			c0.6,0,1.1,0.1,1.5,0.4v-0.5h1.3l0,6.1C115.1,151.6,114.2,151.8,113.3,151.8 M113.2,150.6c0.3,0,0.7,0,1.1-0.1l0-3.4
			c-0.4-0.3-0.8-0.4-1.3-0.4c-1.1,0-1.8,0.8-1.8,2C111.2,149.9,111.9,150.6,113.2,150.6"/>
		<path style="fill-rule:evenodd;clip-rule:evenodd;fill:#1E457E;" d="M155.6,151.8c-2.2,0-3.5-1.2-3.5-3.2c0-2,1.2-3.2,3-3.2
			c0.6,0,1.1,0.1,1.5,0.4v-0.5h1.3l0,6.1C157.3,151.6,156.4,151.8,155.6,151.8 M155.4,150.6c0.3,0,0.7,0,1.1-0.1l0-3.4
			c-0.4-0.3-0.8-0.4-1.3-0.4c-1.1,0-1.8,0.8-1.8,2C153.5,149.9,154.2,150.6,155.4,150.6"/>
	</g>
	<g>
		<polygon style="fill:#1E457E;" points="99.9,142.8 101.2,142.8 101.2,146.5 104.8,146.5 104.8,147.8 101.2,147.8 101.2,151.8 
			99.9,151.8 99.9,147.8 96.3,147.8 96.3,146.5 99.9,146.5 		"/>
		<path style="fill:#1E457E;" d="M171.2,145.4c0.4,0,0.8,0.4,0.8,0.8c0,0.4-0.3,0.8-0.8,0.8c-0.4,0-0.8-0.3-0.8-0.8
			C170.5,145.8,170.8,145.4,171.2,145.4L171.2,145.4z M171.2,145.5c-0.3,0-0.6,0.3-0.6,0.7c0,0.4,0.3,0.7,0.6,0.7
			c0.4,0,0.6-0.3,0.6-0.7C171.9,145.8,171.6,145.5,171.2,145.5L171.2,145.5z M171.1,146.7h-0.1v-0.9c0.1,0,0.1,0,0.3,0
			c0.1,0,0.2,0,0.3,0.1c0.1,0,0.1,0.1,0.1,0.2c0,0.1-0.1,0.2-0.2,0.2v0c0.1,0,0.1,0.1,0.1,0.2c0,0.1,0,0.2,0.1,0.2h-0.1
			c0,0,0-0.1-0.1-0.2c0-0.1-0.1-0.2-0.2-0.2h-0.1V146.7z M171.1,146.2h0.1c0.1,0,0.2,0,0.2-0.2c0-0.1-0.1-0.2-0.2-0.2
			c0,0-0.1,0-0.1,0V146.2z"/>
	</g>
	<g>
		<rect x="295.8" y="284.2" style="fill:#F0C419;" width="28.2" height="37.1"/>
		<rect x="253.6" y="260.3" style="fill:#F29C1F;" width="28.2" height="61"/>
		<rect x="211.3" y="239.1" style="fill:#E57E25;" width="28.2" height="82.2"/>
		<rect x="169" y="217.9" style="fill:#D25627;" width="28.2" height="103.4"/>
		<path style="fill:#556080;" d="M329.6,324H166.2c-1.6,0-2.8-1.2-2.8-2.7s1.3-2.7,2.8-2.7h163.4c1.6,0,2.8,1.2,2.8,2.7
			S331.2,324,329.6,324z"/>
		<path style="fill:#D1D4D1;" d="M307.8,246.4c-0.5,0-1-0.1-1.4-0.4l-109.8-59.7c-1.3-0.7-1.8-2.4-1-3.6s2.5-1.7,3.8-1l109.8,59.7
			c1.3,0.7,1.8,2.4,1,3.6C309.7,245.9,308.8,246.4,307.8,246.4z"/>
		<path style="fill:#D1D4D1;" d="M283.7,248.6c-1.4,0-2.7-1-2.8-2.4c-0.2-1.5,1-2.8,2.5-2.9l24.1-2.2c1.6-0.1,2.9,0.9,3.1,2.4
			c0.2,1.5-1,2.8-2.5,2.9l-24.1,2.2C283.9,248.6,283.8,248.6,283.7,248.6z"/>
		<path style="fill:#D1D4D1;" d="M307.8,246.4c-1.1,0-2.1-0.6-2.6-1.6l-10-20.8c-0.6-1.3,0-2.9,1.4-3.5c1.4-0.6,3.1,0,3.7,1.3
			l10,20.8c0.6,1.3,0,2.9-1.4,3.5C308.6,246.3,308.2,246.4,307.8,246.4z"/>
	</g>
</g>
<text transform="matrix(1 0 0 1 77.0768 87.9174)" style="fill:#8A8B8D; font-family:'Avenir-Heavy'; font-size:18px;">churn rate q4</text>
<polygon style="fill:none;" points="196,88 202,88 202,88 196,88 "/>
</svg>
