<?xml version="1.0" encoding="utf-8"?>
<!-- Generator: Adobe Illustrator 23.0.1, SVG Export Plug-In . SVG Version: 6.00 Build 0)  -->
<svg version="1.1" id="Layer_1" xmlns="http://www.w3.org/2000/svg" xmlns:xlink="http://www.w3.org/1999/xlink" x="0px" y="0px"
	 viewBox="0 0 800 450" style="enable-background:new 0 0 800 450;" xml:space="preserve">
<g>
	<g style="opacity:0.56;">
		<path style="fill-rule:evenodd;clip-rule:evenodd;fill:#FFFFFF;" d="M4,0h792c2.2,0,4,1.8,4,4v442c0,2.2-1.8,4-4,4H4
			c-2.2,0-4-1.8-4-4V4C0,1.8,1.8,0,4,0z"/>
	</g>
	<path style="opacity:0.56;fill-rule:evenodd;clip-rule:evenodd;fill:#FFFFFF;" d="M4,0h792c2.2,0,4,1.8,4,4v442c0,2.2-1.8,4-4,4H4
		c-2.2,0-4-1.8-4-4V4C0,1.8,1.8,0,4,0z"/>

		<linearGradient id="SVGID_1_" gradientUnits="userSpaceOnUse" x1="350.5042" y1="106.5" x2="349.5042" y2="106.5" gradientTransform="matrix(706 0 0 2 -246703 221)">
		<stop  offset="0" style="stop-color:#F6F8FA;stop-opacity:0"/>
		<stop  offset="0.5004" style="stop-color:#E3E7EB"/>
		<stop  offset="1" style="stop-color:#F6F8FA;stop-opacity:0"/>
	</linearGradient>
	<path style="fill-rule:evenodd;clip-rule:evenodd;fill:url(#SVGID_1_);" d="M47,433h706v2H47V433z"/>
	<g transform="translate(0 12)">
		<circle style="fill-rule:evenodd;clip-rule:evenodd;fill:#FF6D8B;" cx="36" cy="4" r="4"/>
		<circle style="fill-rule:evenodd;clip-rule:evenodd;fill:#FFCB4F;" cx="52" cy="4" r="4"/>
		<circle style="fill-rule:evenodd;clip-rule:evenodd;fill:#7CE8DD;" cx="68" cy="4" r="4"/>
		<path style="fill:none;" d="M0,20h800v2H0V20z"/>
		<path style="fill-rule:evenodd;clip-rule:evenodd;fill:#E3E7EB;" d="M742,2h24v4h-24V2z"/>
	</g>
	<g>
		<path style="fill-rule:evenodd;clip-rule:evenodd;fill:#F6F8FA;" d="M49,59.8h702v44.4H49V59.8z"/>
	</g>
	<g style="opacity:0.45;">
		<path style="fill:#4D4D4D;" d="M738.7,91.6l-4.7-5.4c1.3-1.7,2.1-3.6,2.2-5.8c0.1-1.4-0.1-2.8-0.6-4.1c-0.5-1.3-1.1-2.5-2-3.5
			s-1.9-1.8-3.2-2.4c-1.2-0.6-2.6-1-4-1.1s-2.8,0.1-4.1,0.6s-2.5,1.1-3.5,2s-1.8,1.9-2.4,3.2c-0.6,1.2-1,2.6-1.1,4s0.1,2.8,0.6,4.1
			c0.5,1.3,1.1,2.5,2,3.5s1.9,1.8,3.2,2.4c1.2,0.6,2.6,1,4,1.1c2.2,0.1,4.2-0.3,6-1.4l4.7,5.4c0.3,0.4,0.8,0.6,1.3,0.6
			s1-0.1,1.4-0.5c0.4-0.3,0.6-0.8,0.6-1.3C739.2,92.4,739.1,92,738.7,91.6 M730.2,84.7c-1.4,1.2-3,1.8-4.8,1.6
			c-1.8-0.1-3.3-0.9-4.5-2.2c-1.2-1.4-1.8-3-1.6-4.8c0.1-1.8,0.9-3.3,2.2-4.5c1.4-1.2,3-1.8,4.8-1.6c1.8,0.1,3.3,0.9,4.5,2.2
			c1.2,1.4,1.8,3,1.6,4.8C732.3,82,731.6,83.5,730.2,84.7"/>
	</g>
	<g style="opacity:0.56;">
		<rect x="50.5" y="119.9" style="fill-rule:evenodd;clip-rule:evenodd;fill:#F6F8FA;" width="699" height="77.1"/>
		<g>
			<path style="fill:#DFA22F;" d="M100,142.6c-0.5-1.7-2.3-2.6-4-2c-1.7,0.5-2.6,2.3-2,4l8.1,25.4c0.6,1.6,2.2,2.4,3.8,2
				c1.7-0.5,2.7-2.3,2.2-4C108.1,167.9,100,142.6,100,142.6"/>
			<path style="fill:#3CB187;" d="M87.4,146.7c-0.5-1.7-2.3-2.6-4-2c-1.7,0.5-2.6,2.3-2,4l8.1,25.4c0.6,1.6,2.2,2.4,3.8,2
				c1.7-0.5,2.7-2.3,2.2-4C95.5,172.1,87.4,146.7,87.4,146.7"/>
			<path style="fill:#CE1E5B;" d="M110.2,163.6c1.7-0.5,2.6-2.3,2-4c-0.5-1.7-2.3-2.6-4-2l-25,8.3c-1.5,0.6-2.4,2.3-2,3.9
				c0.5,1.7,2.3,2.7,3.9,2.2C85.3,171.8,110.2,163.6,110.2,163.6"/>
			<path style="fill:#392538;" d="M88.5,170.8c1.6-0.5,3.7-1.2,6-2c-0.5-1.7-1.2-3.8-1.9-6.1l-6,2L88.5,170.8"/>
			<path style="fill:#BB242A;" d="M101.1,166.6c2.3-0.7,4.4-1.4,6-2c-0.5-1.7-1.2-3.8-1.9-6.1l-6,2L101.1,166.6"/>
			<path style="fill:#72C5CD;" d="M106.1,150.8c1.7-0.5,2.6-2.3,2-4c-0.5-1.7-2.3-2.6-4-2l-25,8.3c-1.5,0.6-2.4,2.3-2,3.9
				c0.5,1.7,2.3,2.7,3.9,2.2C81.2,159.1,106.1,150.8,106.1,150.8"/>
			<path style="fill:#248C73;" d="M84.4,158c1.6-0.5,3.7-1.2,6-2c-0.7-2.3-1.4-4.4-1.9-6.1l-6,2L84.4,158"/>
			<path style="fill:#62803A;" d="M97,153.8c2.3-0.7,4.4-1.4,6-2c-0.7-2.3-1.4-4.4-1.9-6.1l-6,2L97,153.8"/>
		</g>
	</g>
	<g style="opacity:0.56;">
		<rect x="50.5" y="215.2" style="fill-rule:evenodd;clip-rule:evenodd;fill:#F6F8FA;" width="699" height="77.1"/>
		<g>
			<path style="fill:#E3E3E3;" d="M110.7,264.8H79.4c-1.2,0-2.2-0.9-2.2-2.1v-20.9c0-1.1,1-2.1,2.2-2.1h31.3c1.2,0,2.2,0.9,2.2,2.1
				v20.9C112.9,263.9,111.9,264.8,110.7,264.8L110.7,264.8z"/>
			<path style="opacity:0.1;fill:#231F20;enable-background:new    ;" d="M81.6,264.8l13.4-9.9l0.1-0.5l-13.8-9.2v19.2L81.6,264.8z"
				/>
			<path style="fill:#D54B3D;" d="M79.4,264.8c-1.2,0-2.2-0.9-2.2-2.1v-20.9c0-1.1,1-1.4,2.2-1.4s2.2,0.2,2.2,1.4v22.9h-2.2V264.8z"
				/>
			<path style="fill:#D72B27;" d="M79.4,240.8c1.6,0,1.9,0.4,1.9,1.1v22.7h-1.9c-1.1,0-1.9-0.8-1.9-1.8v-20.9
				C77.5,241.2,77.8,240.8,79.4,240.8L79.4,240.8z M79.4,240.5c-1.2,0-2.2,0.2-2.2,1.4v20.9c0,1.1,1,2.1,2.2,2.1h2.2V242
				C81.6,240.7,80.7,240.5,79.4,240.5L79.4,240.5L79.4,240.5z"/>
			<path style="fill:#D54B3D;" d="M110.7,264.8h-2.2v-23c0-1.1,1-1.3,2.2-1.3s2.2,0.1,2.2,1.3v21
				C112.9,263.9,111.9,264.8,110.7,264.8L110.7,264.8z"/>
			<path style="fill:#D72B27;" d="M110.7,240.8c1.4,0,1.9,0.3,1.9,1v21c0,1-0.9,1.8-1.9,1.8h-1.9v-22.7
				C108.8,241,109.2,240.8,110.7,240.8L110.7,240.8z M110.7,240.5c-1.2,0-2.2,0.1-2.2,1.3v23h2.2c1.2,0,2.2-0.9,2.2-2.1v-21
				C112.9,240.6,111.9,240.5,110.7,240.5L110.7,240.5L110.7,240.5z"/>

				<linearGradient id="SVGID_2_" gradientUnits="userSpaceOnUse" x1="348.917" y1="-113.3763" x2="349.0572" y2="-113.3763" gradientTransform="matrix(253.1598 0 0 174.8345 -88254.3516 20075.5859)">
				<stop  offset="0" style="stop-color:#000000;stop-opacity:0.1"/>
				<stop  offset="1" style="stop-color:#000000;stop-opacity:0.2"/>
			</linearGradient>
			<path style="fill:url(#SVGID_2_);" d="M101.1,264.8l-23.7-22.1l1.2,0.5l16.5,11l17.8-12v20.6c0,1.1-1,2-2.2,2H101.1z"/>
			<path style="fill:#D54B3D;" d="M95,254.9l-16.9-11.3c-1-0.7-1.3-2-0.5-2.9s2.2-1.1,3.2-0.4l14.3,9.6l14.4-9.7
				c1-0.7,2.4-0.5,3.1,0.5c0.7,0.9,0.5,2.2-0.5,2.9L95,254.9L95,254.9z"/>
			<path style="fill:#D72B27;" d="M110.7,240L110.7,240c0.6,0,1.2,0.3,1.6,0.7c0.6,0.8,0.4,1.9-0.4,2.5L95,254.5l-16.7-11.2
				c-0.9-0.6-1.1-1.7-0.5-2.5c0.4-0.4,1-0.7,1.6-0.7c0.4,0,0.8,0.1,1.1,0.4l14.2,9.5l0.2,0.1l0.2-0.1l14.3-9.7
				C109.9,240.1,110.3,240,110.7,240L110.7,240z M110.7,239.7c-0.4,0-0.9,0.1-1.3,0.4L95,249.8l-14.3-9.6c-0.4-0.3-0.9-0.4-1.3-0.4
				c-0.7,0-1.4,0.3-1.8,0.9c-0.7,0.9-0.4,2.2,0.6,2.9L95,254.9l17-11.4c1-0.7,1.2-1.9,0.5-2.9C112,240,111.4,239.7,110.7,239.7
				L110.7,239.7L110.7,239.7z"/>
		</g>
		<text transform="matrix(1 0 0 1 137.0001 259.7499)" style="fill:#8A8B8D; font-family:'Avenir-Heavy'; font-size:18px;">proposal_alpha.pdf in email from John yesterday</text>
	</g>
	<g>
		<rect x="50.5" y="310.1" style="fill-rule:evenodd;clip-rule:evenodd;fill:#F6F8FA;" width="699" height="77.1"/>
		<path style="fill:#3777E3;" d="M81.1,364.4l6.7-11.5h26.7l-6.7,11.5H81.1z"/>
		<path style="fill:#FFCF63;" d="M101.1,352.9h13.3l-13.3-23.1H87.8L101.1,352.9z"/>
		<path style="fill:#11A861;" d="M74.4,352.9l6.7,11.5l13.3-23.1l-6.7-11.5L74.4,352.9z"/>
		<text transform="matrix(1 0 0 1 137.0004 352.8999)" style="fill:#8A8B8D; font-family:'Avenir-Heavy'; font-size:18px;">proposal_alpha_final.pdf edited today </text>
	</g>

		<text transform="matrix(1 0 0 1 137.0003 162.6999)" style="opacity:0.56;fill:#8A8B8D;enable-background:new    ; font-family:'Avenir-Heavy'; font-size:18px;">proposal_alpha.pdf in #project-alpha</text>
</g>
<path style="fill:#3777E3;" d="M81.7,364.4l6.7-11.5H115l-6.7,11.5H81.7z"/>
<path style="fill:#FFCF63;" d="M101.7,352.9H115l-13.3-23.1H88.4L101.7,352.9z"/>
<path style="fill:#11A861;" d="M75,352.9l6.7,11.5L95,341.3l-6.7-11.5L75,352.9z"/>
<path style="fill:#3777E3;" d="M81.7,364.4l6.7-11.5H115l-6.7,11.5H81.7z"/>
<path style="fill:#FFCF63;" d="M101.7,352.9H115l-13.3-23.1H88.4L101.7,352.9z"/>
<path style="fill:#11A861;" d="M75,352.9l6.7,11.5L95,341.3l-6.7-11.5L75,352.9z"/>
<path style="fill:#3777E3;" d="M81.7,364.4l6.7-11.5H115l-6.7,11.5H81.7z"/>
<path style="fill:#FFCF63;" d="M101.7,352.9H115l-13.3-23.1H88.4L101.7,352.9z"/>
<path style="fill:#11A861;" d="M75,352.9l6.7,11.5L95,341.3l-6.7-11.5L75,352.9z"/>
<path style="fill:#3777E3;" d="M81.7,364.4l6.7-11.5H115l-6.7,11.5H81.7z"/>
<path style="fill:#FFCF63;" d="M101.7,352.9H115l-13.3-23.1H88.4L101.7,352.9z"/>
<path style="fill:#11A861;" d="M75,352.9l6.7,11.5L95,341.3l-6.7-11.5L75,352.9z"/>
<text transform="matrix(1 0 0 1 77.0768 87.9174)" style="fill:#8A8B8D; font-family:'Avenir-Heavy'; font-size:18px;">Project alpha proposal pdf</text>
</svg>
