<?xml version="1.0" encoding="utf-8"?>
<!-- Generator: Adobe Illustrator 23.0.1, SVG Export Plug-In . SVG Version: 6.00 Build 0)  -->
<svg version="1.1" id="Layer_1" xmlns="http://www.w3.org/2000/svg" xmlns:xlink="http://www.w3.org/1999/xlink" x="0px" y="0px"
	 viewBox="0 0 800 450" style="enable-background:new 0 0 800 450;" xml:space="preserve">
<g>
	<g style="opacity:0.56;">
		<path style="fill-rule:evenodd;clip-rule:evenodd;fill:#FFFFFF;" d="M4,0h792c2.2,0,4,1.8,4,4v442c0,2.2-1.8,4-4,4H4
			c-2.2,0-4-1.8-4-4V4C0,1.8,1.8,0,4,0z"/>
	</g>
	<path style="opacity:0.56;fill-rule:evenodd;clip-rule:evenodd;fill:#FFFFFF;enable-background:new    ;" d="M4,0h792
		c2.2,0,4,1.8,4,4v442c0,2.2-1.8,4-4,4H4c-2.2,0-4-1.8-4-4V4C0,1.8,1.8,0,4,0z"/>
	
		<linearGradient id="SVGID_1_" gradientUnits="userSpaceOnUse" x1="606.1417" y1="372.5" x2="605.1417" y2="372.5" gradientTransform="matrix(706 0 0 -2 -427183 1179)">
		<stop  offset="0" style="stop-color:#F6F8FA;stop-opacity:0"/>
		<stop  offset="0.5004" style="stop-color:#E3E7EB"/>
		<stop  offset="1" style="stop-color:#F6F8FA;stop-opacity:0"/>
	</linearGradient>
	<path style="fill-rule:evenodd;clip-rule:evenodd;fill:url(#SVGID_1_);" d="M47,433h706v2H47V433z"/>
	<g transform="translate(0 12)">
		<circle style="fill-rule:evenodd;clip-rule:evenodd;fill:#FF6D8B;" cx="36" cy="4" r="4"/>
		<circle style="fill-rule:evenodd;clip-rule:evenodd;fill:#FFCB4F;" cx="52" cy="4" r="4"/>
		<circle style="fill-rule:evenodd;clip-rule:evenodd;fill:#7CE8DD;" cx="68" cy="4" r="4"/>
		<path style="fill:none;" d="M0,20h800v2H0V20z"/>
		<path style="fill-rule:evenodd;clip-rule:evenodd;fill:#E3E7EB;" d="M742,2h24v4h-24V2z"/>
	</g>
	<g>
		<path style="fill-rule:evenodd;clip-rule:evenodd;fill:#F6F8FA;" d="M49,59.8h702v44.4H49V59.8z"/>
	</g>
	<g style="opacity:0.45;">
		<path style="fill:#4D4D4D;" d="M738.7,91.6l-4.7-5.4c1.3-1.7,2.1-3.6,2.2-5.8c0.1-1.4-0.1-2.8-0.6-4.1c-0.5-1.3-1.1-2.5-2-3.5
			s-1.9-1.8-3.2-2.4c-1.2-0.6-2.6-1-4-1.1s-2.8,0.1-4.1,0.6s-2.5,1.1-3.5,2s-1.8,1.9-2.4,3.2c-0.6,1.2-1,2.6-1.1,4s0.1,2.8,0.6,4.1
			c0.5,1.3,1.1,2.5,2,3.5s1.9,1.8,3.2,2.4c1.2,0.6,2.6,1,4,1.1c2.2,0.1,4.2-0.3,6-1.4l4.7,5.4c0.3,0.4,0.8,0.6,1.3,0.6
			s1-0.1,1.4-0.5c0.4-0.3,0.6-0.8,0.6-1.3C739.2,92.4,739.1,92,738.7,91.6 M730.2,84.7c-1.4,1.2-3,1.8-4.8,1.6
			c-1.8-0.1-3.3-0.9-4.5-2.2c-1.2-1.4-1.8-3-1.6-4.8c0.1-1.8,0.9-3.3,2.2-4.5c1.4-1.2,3-1.8,4.8-1.6c1.8,0.1,3.3,0.9,4.5,2.2
			c1.2,1.4,1.8,3,1.6,4.8C732.3,82,731.6,83.5,730.2,84.7"/>
	</g>
	<g>
		<rect x="50.5" y="119.9" style="fill-rule:evenodd;clip-rule:evenodd;fill:#F6F8FA;" width="699" height="77.1"/>
	</g>
	<g>
		<rect x="50.5" y="215.2" style="fill-rule:evenodd;clip-rule:evenodd;fill:#F6F8FA;" width="699" height="77.1"/>
		<text transform="matrix(1 0 0 1 137.0001 259.7499)" style="fill:#8A8B8D; font-family:'Avenir-Heavy'; font-size:18px;">#project-alpha channel</text>
		<g>
			<path style="fill:#DFA22F;" d="M100.2,238c-0.5-1.7-2.3-2.6-4-2c-1.7,0.5-2.6,2.3-2,4l8.1,25.4c0.6,1.6,2.2,2.4,3.8,2
				c1.7-0.5,2.7-2.3,2.2-4C108.4,263.4,100.2,238,100.2,238"/>
			<path style="fill:#3CB187;" d="M87.6,242.2c-0.5-1.7-2.3-2.6-4-2c-1.7,0.5-2.6,2.3-2,4l8.1,25.4c0.6,1.6,2.2,2.4,3.8,2
				c1.7-0.5,2.7-2.3,2.2-4C95.8,267.5,87.6,242.2,87.6,242.2"/>
			<path style="fill:#CE1E5B;" d="M110.5,259.1c1.7-0.5,2.6-2.3,2-4c-0.5-1.7-2.3-2.6-4-2l-25,8.3c-1.5,0.6-2.4,2.3-2,3.9
				c0.5,1.7,2.3,2.7,3.9,2.2C85.5,267.3,110.5,259.1,110.5,259.1"/>
			<path style="fill:#392538;" d="M88.7,266.2c1.6-0.5,3.7-1.2,6-2c-0.5-1.7-1.2-3.8-1.9-6.1l-6,2L88.7,266.2"/>
			<path style="fill:#BB242A;" d="M101.3,262.1c2.3-0.7,4.4-1.4,6-2c-0.5-1.7-1.2-3.8-1.9-6.1l-6,2L101.3,262.1"/>
			<path style="fill:#72C5CD;" d="M106.4,246.3c1.7-0.5,2.6-2.3,2-4c-0.5-1.7-2.3-2.6-4-2l-25,8.3c-1.5,0.6-2.4,2.3-2,3.9
				c0.5,1.7,2.3,2.7,3.9,2.2C81.4,254.5,106.4,246.3,106.4,246.3"/>
			<path style="fill:#248C73;" d="M84.6,253.5c1.6-0.5,3.7-1.2,6-2c-0.7-2.3-1.4-4.4-1.9-6.1l-6,2L84.6,253.5"/>
			<path style="fill:#62803A;" d="M97.2,249.3c2.3-0.7,4.4-1.4,6-2c-0.7-2.3-1.4-4.4-1.9-6.1l-6,2L97.2,249.3"/>
		</g>
	</g>
	<g>
		<rect x="50.5" y="310.1" style="fill-rule:evenodd;clip-rule:evenodd;fill:#F6F8FA;" width="699" height="77.1"/>
		<text transform="matrix(1 0 0 1 137.0004 352.8999)" style="fill:#8A8B8D; font-family:'Avenir-Heavy'; font-size:18px;">project-alpha repo</text>
		<g>
			<path style="fill-rule:evenodd;clip-rule:evenodd;fill:#181616;" d="M93,332.8c-9,0-16.3,7.3-16.3,16.3c0,7.2,4.7,13.3,11.1,15.5
				c0.8,0.1,1.1-0.4,1.1-0.8c0-0.4,0-1.4,0-2.8c-4.5,1-5.5-2.2-5.5-2.2c-0.7-1.9-1.8-2.4-1.8-2.4c-1.5-1,0.1-1,0.1-1
				c1.6,0.1,2.5,1.7,2.5,1.7c1.5,2.5,3.8,1.8,4.7,1.4c0.1-1.1,0.6-1.8,1-2.2c-3.6-0.4-7.4-1.8-7.4-8.1c0-1.8,0.6-3.2,1.7-4.4
				c-0.2-0.4-0.7-2.1,0.2-4.3c0,0,1.4-0.4,4.5,1.7c1.3-0.4,2.7-0.5,4.1-0.5c1.4,0,2.8,0.2,4.1,0.5c3.1-2.1,4.5-1.7,4.5-1.7
				c0.9,2.2,0.3,3.9,0.2,4.3c1,1.1,1.7,2.6,1.7,4.4c0,6.3-3.8,7.6-7.4,8c0.6,0.5,1.1,1.5,1.1,3c0,2.2,0,3.9,0,4.5
				c0,0.4,0.3,0.9,1.1,0.8c6.5-2.2,11.1-8.3,11.1-15.5C109.2,340.1,101.9,332.8,93,332.8z"/>
		</g>
	</g>
	<text transform="matrix(1 0 0 1 137.0003 162.6999)" style="fill:#8A8B8D; font-family:'Avenir-Heavy'; font-size:18px;">designs-project-alpha</text>
	<g>
		<path id="path0_fill" style="fill:#0ACF83;" d="M88.1,176.2c3,0,5.5-2.5,5.5-5.5v-5.5h-5.5c-3,0-5.5,2.5-5.5,5.5
			C82.6,173.7,85,176.2,88.1,176.2z"/>
		<path id="path1_fill" style="fill:#A259FF;" d="M82.6,159.7c0-3,2.5-5.5,5.5-5.5h5.5v11h-5.5C85,165.2,82.6,162.7,82.6,159.7z"/>
		<path id="path1_fill_1_" style="fill:#F24E1E;" d="M82.6,148.7c0-3,2.5-5.5,5.5-5.5h5.5v11h-5.5C85,154.2,82.6,151.7,82.6,148.7z"
			/>
		<path id="path2_fill" style="fill:#FF7262;" d="M93.6,143.2h5.5c3,0,5.5,2.5,5.5,5.5c0,3-2.5,5.5-5.5,5.5h-5.5V143.2z"/>
		<path id="path3_fill" style="fill:#1ABCFE;" d="M104.6,159.7c0,3-2.5,5.5-5.5,5.5c-3,0-5.5-2.5-5.5-5.5c0-3,2.5-5.5,5.5-5.5
			C102.1,154.2,104.6,156.7,104.6,159.7z"/>
	</g>
</g>
<text transform="matrix(1 0 0 1 77.0768 87.9174)" style="fill:#8A8B8D; font-family:'Avenir-Heavy'; font-size:18px;">Project alpha</text>
</svg>
