<?xml version="1.0" encoding="utf-8"?>
<!-- Generator: Adobe Illustrator 23.0.1, SVG Export Plug-In . SVG Version: 6.00 Build 0)  -->
<svg version="1.1" id="Layer_1" xmlns="http://www.w3.org/2000/svg" xmlns:xlink="http://www.w3.org/1999/xlink" x="0px" y="0px"
	 viewBox="0 0 800 450" style="enable-background:new 0 0 800 450;" xml:space="preserve">
<g>
	<g style="opacity:0.56;">
		<path style="fill-rule:evenodd;clip-rule:evenodd;fill:#FFFFFF;" d="M4,0h792c2.2,0,4,1.8,4,4v442c0,2.2-1.8,4-4,4H4
			c-2.2,0-4-1.8-4-4V4C0,1.8,1.8,0,4,0z"/>
	</g>
	<path style="opacity:0.56;fill-rule:evenodd;clip-rule:evenodd;fill:#FFFFFF;enable-background:new    ;" d="M4,0h792
		c2.2,0,4,1.8,4,4v442c0,2.2-1.8,4-4,4H4c-2.2,0-4-1.8-4-4V4C0,1.8,1.8,0,4,0z"/>
	
		<linearGradient id="SVGID_1_" gradientUnits="userSpaceOnUse" x1="861.7791" y1="160.5" x2="860.7791" y2="160.5" gradientTransform="matrix(706 0 0 2 -607663 113)">
		<stop  offset="0" style="stop-color:#F6F8FA;stop-opacity:0"/>
		<stop  offset="0.5004" style="stop-color:#E3E7EB"/>
		<stop  offset="1" style="stop-color:#F6F8FA;stop-opacity:0"/>
	</linearGradient>
	<path style="fill-rule:evenodd;clip-rule:evenodd;fill:url(#SVGID_1_);" d="M47,433h706v2H47V433z"/>
	<g transform="translate(0 12)">
		<circle style="fill-rule:evenodd;clip-rule:evenodd;fill:#FF6D8B;" cx="36" cy="4" r="4"/>
		<circle style="fill-rule:evenodd;clip-rule:evenodd;fill:#FFCB4F;" cx="52" cy="4" r="4"/>
		<circle style="fill-rule:evenodd;clip-rule:evenodd;fill:#7CE8DD;" cx="68" cy="4" r="4"/>
		<path style="fill:none;" d="M0,20h800v2H0V20z"/>
		<path style="fill-rule:evenodd;clip-rule:evenodd;fill:#E3E7EB;" d="M742,2h24v4h-24V2z"/>
	</g>
	<g>
		<path style="fill-rule:evenodd;clip-rule:evenodd;fill:#F6F8FA;" d="M49,59.8h702v44.4H49V59.8z"/>
	</g>
	<g style="opacity:0.45;">
		<path style="fill:#4D4D4D;" d="M738.7,91.6l-4.7-5.4c1.3-1.7,2.1-3.6,2.2-5.8c0.1-1.4-0.1-2.8-0.6-4.1c-0.5-1.3-1.1-2.5-2-3.5
			s-1.9-1.8-3.2-2.4c-1.2-0.6-2.6-1-4-1.1s-2.8,0.1-4.1,0.6s-2.5,1.1-3.5,2s-1.8,1.9-2.4,3.2c-0.6,1.2-1,2.6-1.1,4s0.1,2.8,0.6,4.1
			c0.5,1.3,1.1,2.5,2,3.5s1.9,1.8,3.2,2.4c1.2,0.6,2.6,1,4,1.1c2.2,0.1,4.2-0.3,6-1.4l4.7,5.4c0.3,0.4,0.8,0.6,1.3,0.6
			s1-0.1,1.4-0.5c0.4-0.3,0.6-0.8,0.6-1.3C739.2,92.4,739.1,92,738.7,91.6 M730.2,84.7c-1.4,1.2-3,1.8-4.8,1.6
			c-1.8-0.1-3.3-0.9-4.5-2.2c-1.2-1.4-1.8-3-1.6-4.8c0.1-1.8,0.9-3.3,2.2-4.5c1.4-1.2,3-1.8,4.8-1.6c1.8,0.1,3.3,0.9,4.5,2.2
			c1.2,1.4,1.8,3,1.6,4.8C732.3,82,731.6,83.5,730.2,84.7"/>
	</g>
	<g>
		<rect x="50.5" y="119.9" style="fill-rule:evenodd;clip-rule:evenodd;fill:#F6F8FA;" width="700.5" height="254.1"/>
	</g>
	<text transform="matrix(1 0 0 1 230.2831 225.0002)" style="enable-background:new    ;"><tspan x="0" y="0" style="fill:#8A8B8D; font-family:'Avenir-Heavy'; font-size:18px;">Name: Brian Andrew</tspan><tspan x="0" y="21.6" style="fill:#8A8B8D; font-family:'Avenir-Heavy'; font-size:18px;">Role: Senior Engineer</tspan><tspan x="0" y="43.2" style="fill:#8A8B8D; font-family:'Avenir-Heavy'; font-size:18px;">Manager: Janet Fitzpatrick</tspan><tspan x="0" y="64.8" style="fill:#8A8B8D; font-family:'Avenir-Heavy'; font-size:18px;">Email: brian.andrew@work.com</tspan></text>
	<g id="g10" transform="matrix(1.3333333,0,0,-1.3333333,0,53.373333)">
		<g id="g12" transform="scale(0.1)">
			<path id="path14" style="fill:#F49813;" d="M794.2-656.4c18.8,0.6,37.7-2.2,55.4-8.5c26.6-9.4,50.4-26.5,67.9-48.7
				c7.7-9.7,14.1-20.4,19.1-31.8c0.9-1.9,1.6-4,1.1-6.1c-0.6-3.5-3.7-6.4-7.2-6.8c-3.7-0.5-7.5,1.8-8.8,5.2
				c-10,23.5-27.1,44-48.4,58.1c-13.2,8.8-27.9,15.2-43.4,18.8c-19.9,4.7-40.8,4.7-60.7,0c-28.4-6.5-54.4-22.8-72.8-45.5
				c-7.8-9.5-14.2-20.2-19-31.5c-1-2.6-3.5-4.7-6.3-5.2c-2.7-0.5-5.7,0.4-7.5,2.4c-2.2,2.2-3,5.8-1.8,8.7c13.3,31.5,38,58,68.3,73.7
				C749.9-662.9,772-657.2,794.2-656.4L794.2-656.4"/>
			<path id="path16" style="fill:#3069B5;" d="M769.4-753.4c-0.1,1.6,1.4,2.9,3,2.9c2,0.1,4,0,6,0c1.4,0,3-1,3-2.5
				c0.1-18.3,0-36.6,0.1-54.9c7.4,8.2,14.9,16.5,22.3,24.7c1.5,1.4,2.6,3.6,4.9,3.8c3.1,0.1,6.2,0.1,9.2,0c1.2,0.1,2.5-1,2.1-2.2
				c-0.5-1-1.4-1.6-2.1-2.4c-8-8-16.1-16.1-24.1-24.1c7.7-8.8,15.4-17.8,23.1-26.6c1-1.3,2.2-2.3,3.1-3.7c0.6-1.1-0.4-2.4-1.6-2.5
				c-2.6-0.1-5.1,0-7.7-0.1c-1.3,0-2.8-0.2-4,0.5c-1.3,0.7-2.1,2-3,3.1c-7.4,9.4-14.8,18.7-22.3,28.1c-0.1-9.2,0-18.4,0-27.6
				c0-1.1,0.2-2.3-0.7-3.1c-1.5-1.4-3.7-0.9-5.5-1c-1.6,0.1-3.5-0.3-4.9,0.9c-0.7,0.6-0.9,1.6-0.9,2.4
				C769.4-809.7,769.4-781.5,769.4-753.4L769.4-753.4"/>
			<path id="path18" style="fill:#3069B5;" d="M735.6-779.3c3.7,1.2,7.9,1.4,11.6-0.2c1.3-0.6,2.8-1.9,2.2-3.5c-0.6-2-1.1-4-1.8-5.9
				c-0.5-1.4-2.1-1.9-3.5-1.6c-3.1,0.5-6.1,1.5-9.2,1.4c-2.2,0.1-4.2-1.1-5.7-2.7c-2.4-2.4-3.7-5.7-4.2-9c-0.4-2.4-0.3-4.8-0.3-7.2
				c0-10.1,0-20.2,0-30.3c0.1-1.7-1.6-2.8-3.1-2.8c-2.1,0-4.1-0.1-6.2,0c-1.5,0.1-3.2,1.2-3,2.8c0,18.7,0,37.4,0,56.1
				c-0.1,1.9,1.9,2.9,3.6,2.7c2-0.1,4.8,0.6,6.1-1.4c1-2.4,1.5-4.9,2.4-7.3C727.2-784.2,731-780.8,735.6-779.3L735.6-779.3"/>
			<path id="path20" style="fill:#3069B5;" d="M525.6-780.7c0.6,0.7,1.2,1.4,2.2,1.3c2.8,0,5.6,0.1,8.4,0c1.4,0,2.4-1.3,2.6-2.6
				c2.7-11.2,5.4-22.3,8.2-33.5c0.8-3.4,1.8-6.9,2.3-10.4c0.5-3.2,0.6-6.4,1.2-9.5c0.7,4.5,1.3,9,2.6,13.4
				c3.6,13.3,7.1,26.7,10.7,40c0.3,1.5,1.7,2.6,3.2,2.6c3.1,0.1,6.2,0,9.3,0c1.7,0.1,3.5-0.9,3.9-2.6c2.7-9.7,5.3-19.5,8-29.2
				c1.6-6.3,3.7-12.5,4.6-19c0.3-1.8,0.5-3.6,0.9-5.3c1,10.2,3.6,20,5.8,30c1.8,7.9,3.5,15.8,5.3,23.7c0.3,1.6,1.9,2.4,3.4,2.3
				c2.5,0,5,0.1,7.5,0c1.5,0,2.3-1.7,1.8-3c-5-18.6-10.1-37.2-15.1-55.9c-0.3-1.5-1.6-2.7-3.1-2.7c-3.9-0.1-7.8,0-11.7-0.1
				c-1.4-0.1-2.9,0.7-3.1,2.1c-3.5,12.8-6.9,25.6-10.4,38.4c-1.3,4.5-1.8,9.1-2.3,13.7c-0.6-4.1-1-8.2-2-12.2
				c-3.5-13.2-7.1-26.4-10.6-39.6c-0.4-2.1-2.8-2.6-4.7-2.4c-3.6,0.1-7.2-0.1-10.9,0.1c-1.3,0-2.3,1-2.5,2.2
				c-5.1,18.5-10.2,37.1-15.2,55.6C525.7-782.4,525.7-781.5,525.6-780.7L525.6-780.7"/>
			<path id="path22" style="fill:#3069B5;" d="M982.6-779.5c2.6,0,5.3,0.1,7.9,0c1.6,0,3.1-1.1,3.6-2.7c4.6-11.9,9.1-23.9,13.7-35.8
				c1-2.4,1.6-5,2-7.5c1.9,7.1,4.4,14,6.6,21c2.5,7.6,4.9,15.1,7.4,22.7c0.4,1.3,1.6,2.2,3,2.3c2.2,0.2,4.3,0,6.5,0.1
				c1.3,0,2.8,0.1,3.7-0.9c0.6-0.5,0.5-1.4,0.2-2.1c-7.3-20.8-14.6-41.7-21.9-62.5c-1.3-3.5-2.2-7.1-4.3-10.2
				c-2.9-4.8-7.7-8.2-12.9-10c-1.8-0.6-3.7-1.8-5.7-1.1c-1.4,0.4-1.9,1.8-2.7,2.9c-0.5,1-1.5,1.9-1.3,3.1c0.1,1.2,1,2.2,2.2,2.5
				c2.2,0.8,4.4,1.6,6.2,3.1c4.3,3.7,7,9.1,8,14.6c-0.7,2.4-2,4.7-2.9,7.1c-7,16.2-13.9,32.4-20.9,48.5c-0.4,1.1-1,2.1-1.2,3.2
				C980.1-780,981.6-779.5,982.6-779.5L982.6-779.5"/>
			<path id="path24" style="fill:#3069B5;" d="M658-787.3c-3.8-0.7-7.3-3.1-9.2-6.4c-3.2-5.5-3.6-12.1-3.4-18.2
				c0.2-5.6,1.1-11.6,4.7-16.1c2.7-3.4,7.1-5.1,11.3-5.1c4.1-0.1,8.4,1.3,11.2,4.4c3.5,3.9,4.7,9.3,5.2,14.3c0.2,5,0.3,10.1-1,14.9
				c-1,4.1-3.2,8.2-7,10.4C666.3-786.9,662-786.7,658-787.3z M659.6-778.4c6.9,0.4,14.1-1,19.7-5.1c5.1-3.6,8.5-9.2,10.1-15.1
				c1.9-7.1,1.9-14.7,0.2-21.9c-1.6-6.6-5.5-12.8-11.2-16.6c-6.2-4.1-13.9-5.2-21.1-4.3c-6.2,0.8-12.2,3.5-16.5,8
				c-5,5.3-7.5,12.6-8.1,19.8c-0.6,8,0.6,16.4,5,23.2c3.3,5.1,8.5,8.9,14.3,10.6C654.5-779,657.1-778.6,659.6-778.4L659.6-778.4"/>
			<path id="path26" style="fill:#3069B5;" d="M862.3-787c-3.8-0.2-7.4-2.4-9.1-5.8c-3.3-6.4-3.4-13.8-3.2-20.8
				c0.3-4.6,0.8-9.3,2.9-13.4c1.4-2.8,4.1-5,7.1-5.6c4.7-1.1,10.3-0.2,13.7,3.6c3.2,3.7,4.3,8.7,4.8,13.5c0.3,5.4,0.4,10.9-1,16.2
				c-0.9,3.5-2.5,7.1-5.3,9.5C869.6-787.5,865.8-786.5,862.3-787z M878.5-752.6c-0.1,1.4,1.4,2.4,2.7,2.5c2,0.1,4.1,0.1,6.1,0
				c1.6,0,3.3-1.1,3.1-2.9c0-28.2,0-56.5,0-84.7c0.1-1.5-1.3-2.6-2.7-2.7c-1.6-0.1-3.3-0.1-4.9,0c-1.1,0.1-2.2,0.8-2.6,1.9
				c-0.6,1.8-0.9,3.7-1.4,5.6c-2.3-3.1-5.2-5.8-8.8-7.1c-5.2-1.9-10.9-1.9-16.2-0.6c-5.3,1.3-10,4.9-12.5,9.7
				c-4,7.3-4.5,16-4.3,24.2c0.1,7,1.5,14.4,6,20c3.4,4.7,9.1,7.4,14.8,8.1c5.3,0.8,11-0.1,15.4-3.3c2.1-1.5,3.7-3.4,5.2-5.5
				C878.5-775.8,878.5-764.2,878.5-752.6L878.5-752.6"/>
			<path id="path28" style="fill:#3069B5;" d="M935.6-787.3c-1.9-0.4-3.7-1.1-5.2-2.3c-3.1-2.4-4.6-6.2-5.4-9.8
				c-1.2-5.8-1.2-11.8-0.6-17.7c0.6-4.3,1.7-8.9,4.8-12.1c2.6-2.7,6.5-3.7,10.1-3.5c3.9-0.1,8,1.3,10.5,4.4
				c3.2,3.8,4.1,8.9,4.5,13.7c0.3,5.6,0.3,11.4-1.3,16.9c-1,3.4-2.8,6.8-5.9,8.7C943.8-786.9,939.5-786.7,935.6-787.3z M930.3-779.6
				c5.4,1.5,11.3,1.6,16.8,0.3c5.1-1.2,9.9-4,13-8.3c3.3-4.4,5-9.7,5.7-15.1c0.6-4.1,0.4-8.3,0.4-12.5c0-7.5,0-15.1,0-22.6
				c0.1-0.9-0.5-1.7-1.2-2.2c-1.3-0.8-2.8-0.4-4.2-0.5c-1.6,0-3.7-0.1-4.5,1.5c-0.8,1.9-1,4.1-1.6,6.1c-2.1-2.6-4.3-5.2-7.4-6.7
				c-4.7-2.3-10.2-2.2-15.2-1.2c-6.1,1.2-11.8,4.8-15.2,10.1c-4.1,6.1-5.6,13.6-5.6,20.8c-0.1,7.1,1.3,14.4,5.3,20.4
				C919.7-784.7,924.7-781.1,930.3-779.6L930.3-779.6"/>
			<path id="path30" style="fill:#3069B5;" d="M1039.9-825.9c-3.1-1.1-5.1-4.7-4.3-8c0.8-3.8,5.2-6.4,8.9-5c3.4,1,5.6,4.9,4.5,8.3
				C1048.1-826.7,1043.6-824.4,1039.9-825.9z M1040.4-824.3c1.8,0.3,3.9,0.3,5.6-0.5c2.9-1.3,5-4.5,4.7-7.7c0.2-3.9-3-7.4-6.8-8
				c-4.2-0.9-8.7,2.1-9.6,6.3C1033.2-829.9,1036.1-825.2,1040.4-824.3L1040.4-824.3"/>
			<path id="path32" style="fill:#3069B5;" d="M1041.2-829c0-0.9,0-1.8,0-2.7c0.8,0,1.6,0,2.3,0.2c0.7,0.3,0.6,1.2,0.5,1.8
				C1043.3-828.9,1042.2-829.1,1041.2-829z M1038.9-827.6c2.2-0.1,4.7,0.5,6.7-0.7c1.6-1.2,0.8-3.9-1-4.4c0.5-1.4,1.3-2.7,1.9-4
				c-0.8,0-1.7,0-2.5,0c-0.6,1.2-1.2,2.5-1.8,3.7c-0.4,0-0.7,0-1.1,0c0-1.2,0-2.5,0-3.7c-0.8,0-1.6,0-2.3,0
				C1038.9-833.7,1038.9-830.6,1038.9-827.6L1038.9-827.6"/>
		</g>
	</g>
	<g>
		<g>
			<g>
				<path style="fill:#F5E0CD;" d="M172.7,269.6h-5.9v-23.2h10.6c3.8,0,6.9,3.1,6.9,6.9v4.7C184.3,264.5,179.1,269.6,172.7,269.6z"
					/>
				<path style="fill:#4F3C36;" d="M172.7,271.2h-5.9c-0.8,0-1.5-0.7-1.5-1.5v-23.2c0-0.8,0.7-1.5,1.5-1.5h10.6
					c4.6,0,8.4,3.8,8.4,8.4v4.7C185.9,265.3,180,271.2,172.7,271.2z M168.4,268.1h4.3c5.5,0,10.1-4.5,10.1-10.1v-4.7
					c0-2.9-2.4-5.4-5.4-5.4h-9.1L168.4,268.1L168.4,268.1z"/>
				<path style="fill:#4F3C36;" d="M175.1,264.2c-0.7,0-1.4-0.3-1.9-0.7c-0.7-0.6-1-1.6-0.8-2.6c0.1-0.8,0.5-1.5,1.1-2.1
					c0.5-0.5,1.2-0.5,1.7-0.1c0.5,0.5,0.5,1.2,0.1,1.7c-0.3,0.3-0.4,0.6-0.5,0.8c-0.1,0.2,0,0.4,0.1,0.5c0.1,0.1,0.2,0.1,0.3,0.1
					c0.2,0,0.5-0.1,0.6-0.3c0.3-0.4,0.5-1,0.3-1.7c-0.1-0.7-0.5-1.3-0.8-2.1l-0.2-0.3c-0.4-0.9-0.9-2-0.9-3.2
					c-0.1-1.4,0.6-2.7,1.7-3.3c0.8-0.4,1.9-0.4,2.8,0.2c0.7,0.4,1.2,1,1.6,1.9c0.3,0.6,0,1.3-0.6,1.5c-0.6,0.3-1.3,0-1.5-0.6
					c-0.2-0.4-0.4-0.6-0.6-0.8c-0.2-0.1-0.5-0.2-0.6-0.1c-0.3,0.1-0.4,0.6-0.4,1c0,0.8,0.4,1.5,0.7,2.3l0.2,0.3
					c0.4,0.8,0.8,1.7,1,2.7c0.3,1.4-0.1,2.8-0.9,3.7C176.8,263.7,176,264.1,175.1,264.2C175.2,264.2,175.1,264.2,175.1,264.2z"/>
			</g>
			<g>
				<path style="fill:#F5E0CD;" d="M98.7,269.6h5.9v-23.2H94c-3.8,0-6.9,3.1-6.9,6.9v4.7C87.1,264.5,92.3,269.6,98.7,269.6z"/>
				<path style="fill:#4F3C36;" d="M104.6,271.2h-5.9c-7.2,0-13.2-5.9-13.2-13.2v-4.7c0-4.6,3.8-8.4,8.4-8.4h10.6
					c0.8,0,1.5,0.7,1.5,1.5v23.2C106.2,270.5,105.5,271.2,104.6,271.2z M94,248c-2.9,0-5.4,2.4-5.4,5.4v4.7
					c0,5.5,4.5,10.1,10.1,10.1h4.3V248H94z"/>
				<path style="fill:#4F3C36;" d="M96.3,264.2c-0.1,0-0.1,0-0.1,0c-0.8-0.1-1.7-0.4-2.2-1c-0.8-0.9-1.2-2.3-0.9-3.7
					c0.2-1,0.6-1.9,1-2.7l0.2-0.3c0.4-0.7,0.7-1.5,0.7-2.3c0-0.5-0.2-0.9-0.4-1c-0.2-0.1-0.4-0.1-0.6,0.1c-0.3,0.2-0.5,0.4-0.6,0.8
					c-0.3,0.6-1,0.9-1.5,0.6c-0.6-0.3-0.9-1-0.6-1.5c0.4-0.8,0.9-1.4,1.6-1.9c0.9-0.5,2-0.6,2.8-0.2c1.1,0.5,1.8,1.8,1.7,3.3
					c-0.1,1.2-0.5,2.3-0.9,3.2l-0.2,0.3c-0.4,0.7-0.7,1.4-0.8,2.1c-0.1,0.7,0,1.3,0.3,1.7c0.2,0.2,0.4,0.3,0.6,0.3
					c0.1,0,0.2,0,0.3-0.1s0.2-0.3,0.1-0.5c-0.1-0.3-0.2-0.6-0.5-0.8c-0.5-0.5-0.4-1.2,0.1-1.7c0.5-0.5,1.2-0.4,1.7,0.1
					c0.6,0.6,1,1.3,1.1,2.1c0.2,1-0.2,2-0.8,2.6C97.7,263.9,97,264.2,96.3,264.2z"/>
			</g>
		</g>
		<g>
			<path style="fill:#F5E0CD;" d="M101.8,227.5v43.7c0,17.1,13.9,31.1,31.1,31.1h5.7c17.1,0,31.1-13.9,31.1-31.1v-43.7
				c0-11.8-9.5-21.3-21.3-21.3h-25.2C111.3,206.2,101.8,215.7,101.8,227.5z"/>
			<path style="fill:#4F3C36;" d="M138.6,303.8h-5.7c-18,0-32.6-14.6-32.6-32.6v-43.7c0-12.6,10.3-22.9,22.9-22.9h25.2
				c12.6,0,22.9,10.3,22.9,22.9v43.7C171.1,289.2,156.5,303.8,138.6,303.8z M123.1,207.7c-10.9,0-19.8,8.9-19.8,19.8v43.7
				c0,16.3,13.3,29.5,29.5,29.5h5.7c16.3,0,29.5-13.3,29.5-29.5v-43.7c0-10.9-8.9-19.8-19.8-19.8L123.1,207.7L123.1,207.7z"/>
		</g>
		<path style="fill:#4F3C36;" d="M135.7,286.1c-3.1,0-6.2-0.7-9.3-2.2c-0.6-0.3-0.8-1-0.6-1.5c0.3-0.6,1-0.8,1.5-0.6
			c5.6,2.6,11,2.6,16.6,0c0.6-0.3,1.3,0,1.5,0.6c0.3,0.6,0,1.3-0.6,1.5C141.9,285.4,138.8,286.1,135.7,286.1z"/>
		<path style="fill:#4F3C36;" d="M135.7,273.4c-2.3,0-4.7-0.9-7-2.7c-0.7-0.5-0.8-1.5-0.3-2.2c0.5-0.7,1.5-0.8,2.2-0.3
			c3.5,2.7,6.7,2.7,10.1,0c0.7-0.5,1.7-0.4,2.2,0.3c0.5,0.7,0.4,1.7-0.3,2.2C140.4,272.5,138.1,273.4,135.7,273.4z"/>
		<g>
			<path style="fill:#4F3C36;" d="M147,246.4c-0.8,0-1.6-0.4-2-1.2c-0.6-1.1-0.2-2.5,0.9-3c1.8-1,8.4-3.9,17.1-1.8
				c1.2,0.3,2,1.5,1.7,2.7c-0.3,1.2-1.5,2-2.7,1.7c-5.7-1.4-10.9-0.2-13.9,1.4C147.7,246.3,147.4,246.4,147,246.4z"/>
			<path style="fill:#4F3C36;" d="M124.4,246.4c-0.4,0-0.7-0.1-1.1-0.3c-3-1.6-8.3-2.8-13.9-1.4c-1.2,0.3-2.4-0.5-2.7-1.7
				c-0.3-1.2,0.5-2.4,1.7-2.7c8.7-2.1,15.3,0.9,17.1,1.8c1.1,0.6,1.5,2,0.9,3C126,245.9,125.3,246.4,124.4,246.4z"/>
		</g>
		<g>
			<g>
				<g>
					<g>
						<g>
							<path style="fill:#EDF7F7;" d="M140.7,250.4l0.4,5.2c0.2,2.7,2.4,4.8,5.2,4.8h14.9c4,0,7.2-3.2,7.2-7.2V250
								c0-2-1.6-3.6-3.6-3.6h-20.3C142.3,246.5,140.6,248.3,140.7,250.4z"/>
							<path style="fill:#4F3C36;" d="M161.1,262h-14.9c-3.5,0-6.5-2.7-6.7-6.2l-0.4-5.2l0,0c-0.1-1.4,0.4-2.9,1.4-3.9
								c1-1.1,2.4-1.7,3.8-1.7h20.3c2.8,0,5.1,2.3,5.1,5.1v3.2C169.9,258.1,165.9,262,161.1,262z M142.3,250.3l0.4,5.2
								c0.2,1.9,1.7,3.4,3.6,3.4h14.9c3.1,0,5.6-2.5,5.6-5.6v-3.2c0-1.1-0.9-2.1-2.1-2.1h-20.3c-0.6,0-1.2,0.3-1.6,0.7
								C142.4,249.1,142.2,249.7,142.3,250.3L142.3,250.3z"/>
						</g>
						<path style="fill:#4F3C36;" d="M174.9,248h-10.1c-0.8,0-1.5-0.7-1.5-1.5c0-0.9,0.7-1.5,1.5-1.5h10.1c0.8,0,1.5,0.7,1.5,1.5
							C176.4,247.3,175.7,248,174.9,248z"/>
					</g>
					<g>
						<g>
							<path style="fill:#EDF7F7;" d="M130.7,250.4l-0.4,5.2c-0.2,2.7-2.4,4.8-5.2,4.8h-14.9c-4,0-7.2-3.2-7.2-7.2V250
								c0-2,1.6-3.6,3.6-3.6H127C129.1,246.5,130.8,248.3,130.7,250.4z"/>
							<path style="fill:#4F3C36;" d="M125.2,262h-14.9c-4.8,0-8.7-3.9-8.7-8.7v-3.2c0-2.8,2.3-5.1,5.1-5.1H127
								c1.4,0,2.8,0.6,3.8,1.7c1,1.1,1.5,2.5,1.4,3.9l0,0l-0.4,5.2C131.6,259.2,128.7,262,125.2,262z M106.7,248
								c-1.1,0-2.1,0.9-2.1,2.1v3.2c0,3.1,2.5,5.6,5.6,5.6h14.9c1.9,0,3.5-1.5,3.6-3.4l0.4-5.2c0.1-0.6-0.2-1.2-0.6-1.6
								c-0.4-0.5-1-0.7-1.6-0.7H106.7z M130.7,250.4L130.7,250.4L130.7,250.4z"/>
						</g>
						<path style="fill:#4F3C36;" d="M106.7,248H96.6c-0.8,0-1.5-0.7-1.5-1.5c0-0.9,0.7-1.5,1.5-1.5h10.1c0.8,0,1.5,0.7,1.5,1.5
							C108.2,247.3,107.6,248,106.7,248z"/>
					</g>
				</g>
				<path style="fill:#4F3C36;" d="M140.6,253.1h-9.8c-0.8,0-1.5-0.7-1.5-1.5s0.7-1.5,1.5-1.5h9.8c0.8,0,1.5,0.7,1.5,1.5
					S141.5,253.1,140.6,253.1z"/>
			</g>
			<g>
				<circle style="fill:#4F3C36;" cx="117.5" cy="252.9" r="2.4"/>
				<circle style="fill:#4F3C36;" cx="154" cy="252.9" r="2.4"/>
			</g>
		</g>
		<path style="fill:#7B7B7B;" d="M137.8,196.1h-4.9c-20.4,0-37.1,16.6-37.1,37.1v13.3h5.9c0-13.1,7.3-17.4,7.3-17.4v-4.6
			c0-6.7,5.4-12,12-12h29.3c6.7,0,12,5.4,12,12v4.6c0,0,7.3,4.3,7.3,17.4h5.1v-13.3C174.9,212.6,158.2,196.1,137.8,196.1z"/>
		<path style="fill:#4F3C36;" d="M174.9,248h-5.1c-0.8,0-1.5-0.7-1.5-1.5c0-11.9-6.3-15.9-6.6-16.1c-0.5-0.3-0.7-0.8-0.7-1.3v-4.6
			c0-5.8-4.7-10.5-10.5-10.5h-29.3c-5.8,0-10.5,4.7-10.5,10.5v4.6c0,0.6-0.3,1-0.8,1.3c-0.3,0.2-6.6,4.2-6.6,16.1
			c0,0.8-0.7,1.5-1.5,1.5h-5.9c-0.8,0-1.5-0.7-1.5-1.5v-13.3c0-21.3,17.3-38.6,38.6-38.6h4.9c21.3,0,38.6,17.3,38.6,38.6v13.3
			C176.4,247.3,175.7,248,174.9,248z M171.3,244.9h2v-11.8c0-19.6-16-35.5-35.5-35.5h-4.9c-19.6,0-35.5,16-35.5,35.5v11.8h2.9
			c0.5-10.3,5.3-15.2,7.3-16.7v-3.9c0-7.5,6.1-13.6,13.6-13.6h29.3c7.5,0,13.6,6.1,13.6,13.6v3.9C166,229.7,170.8,234.6,171.3,244.9
			z"/>
	</g>
	
		<text transform="matrix(1 0 0 1 620.7565 273.4066)" style="opacity:0.5;fill:#8A8B8D;enable-background:new    ; font-family:'Avenir-Heavy'; font-size:15px;">Chat on Slack &gt; </text>
	<g style="opacity:0.48;">
		<path style="fill:#DFA22F;" d="M673.7,224.9c-0.5-1.7-2.3-2.6-4-2c-1.7,0.5-2.6,2.3-2,4l8.1,25.4c0.6,1.6,2.2,2.4,3.8,2
			c1.7-0.5,2.7-2.3,2.2-4C681.8,250.2,673.7,224.9,673.7,224.9"/>
		<path style="fill:#3CB187;" d="M661.1,229c-0.5-1.7-2.3-2.6-4-2c-1.7,0.5-2.6,2.3-2,4l8.1,25.4c0.6,1.6,2.2,2.4,3.8,2
			c1.7-0.5,2.7-2.3,2.2-4C669.2,254.4,661.1,229,661.1,229"/>
		<path style="fill:#CE1E5B;" d="M683.9,245.9c1.7-0.5,2.6-2.3,2-4c-0.5-1.7-2.3-2.6-4-2l-25,8.3c-1.5,0.6-2.4,2.3-2,3.9
			c0.5,1.7,2.3,2.7,3.9,2.2C659,254.1,683.9,245.9,683.9,245.9"/>
		<path style="fill:#392538;" d="M662.2,253.1c1.6-0.5,3.7-1.2,6-2c-0.5-1.7-1.2-3.8-1.9-6.1l-6,2L662.2,253.1"/>
		<path style="fill:#BB242A;" d="M674.8,248.9c2.3-0.7,4.4-1.4,6-2c-0.5-1.7-1.2-3.8-1.9-6.1l-6,2L674.8,248.9"/>
		<path style="fill:#72C5CD;" d="M679.8,233.1c1.7-0.5,2.6-2.3,2-4c-0.5-1.7-2.3-2.6-4-2l-25,8.3c-1.5,0.6-2.4,2.3-2,3.9
			c0.5,1.7,2.3,2.7,3.9,2.2C654.9,241.4,679.8,233.1,679.8,233.1"/>
		<path style="fill:#248C73;" d="M658.1,240.3c1.6-0.5,3.7-1.2,6-2c-0.7-2.3-1.4-4.4-1.9-6.1l-6,2L658.1,240.3"/>
		<path style="fill:#62803A;" d="M670.7,236.1c2.3-0.7,4.4-1.4,6-2c-0.7-2.3-1.4-4.4-1.9-6.1l-6,2L670.7,236.1"/>
	</g>
</g>
<text transform="matrix(1 0 0 1 77.0768 87.9174)" style="fill:#8A8B8D; font-family:'Avenir-Heavy'; font-size:18px;">Brian Andrews</text>
</svg>
